<svg xmlns="http://www.w3.org/2000/svg" version="1.1" xmlns:xlink="http://www.w3.org/1999/xlink" xmlns:svgjs="http://svgjs.com/svgjs" width="1920" height="1080" preserveAspectRatio="none" viewBox="0 0 1920 1080"><g mask="url(&quot;#SvgjsMask1024&quot;)" fill="none"><rect width="1920" height="1080" x="0" y="0" fill="rgba(255, 255, 255, 1)"></rect><path d="M1175.95 676.92L1244.76 676.92L1244.76 755.2L1175.95 755.2z" fill="#d3b714"></path><path d="M1508.24 115.37L1570.57 115.37L1570.57 129.26L1508.24 129.26z" fill="#037b0b"></path><path d="M1076.18 435.33L1099.01 435.33L1099.01 541.77L1076.18 541.77z" fill="#037b0b"></path><path d="M1209.41 667.49 a20.31 20.31 0 1 0 40.62 0 a20.31 20.31 0 1 0 -40.62 0z" fill="#d3b714"></path><path d="M1725.24 591.82L1818.11 591.82L1818.11 619.6L1725.24 619.6z" fill="#e73635"></path><path d="M1099.85 25.9L1131.64 25.9L1131.64 88.5L1099.85 88.5z" fill="#037b0b"></path><path d="M1202.95 625.64L1264 625.64L1264 686.69L1202.95 686.69z" stroke="#e73635"></path><path d="M753.92 662.96a46.39 46.39 0 1 0 92.11-11.14z" fill="#e73635"></path><path d="M209.87 622.92 a94.55 94.55 0 1 0 189.1 0 a94.55 94.55 0 1 0 -189.1 0z" stroke="#e73635"></path><path d="M863.97 360.81L951.39 360.81L951.39 463.5L863.97 463.5z" fill="#d3b714"></path><path d="M274.77 912.37 a61.02 61.02 0 1 0 122.04 0 a61.02 61.02 0 1 0 -122.04 0z" stroke="#037b0b"></path><path d="M-77.36 434.5 a78.85 78.85 0 1 0 157.7 0 a78.85 78.85 0 1 0 -157.7 0z" fill="#e73635"></path><path d="M549.57 1009.62a14.55 14.55 0 1 0 20.22-20.93z" fill="#037b0b"></path><path d="M1468.17 572.38 a97.09 97.09 0 1 0 194.18 0 a97.09 97.09 0 1 0 -194.18 0z" stroke="#d3b714"></path><path d="M1037.11 163.92L1123.88 163.92L1123.88 237.17L1037.11 237.17z" stroke="#037b0b"></path><path d="M26.31 902.13L128.8 902.13L128.8 1004.62L26.31 1004.62z" stroke="#e73635"></path><path d="M1431.22 228.38 a38.79 38.79 0 1 0 77.58 0 a38.79 38.79 0 1 0 -77.58 0z" stroke="#e73635"></path><path d="M852.58 987.54L881.01 987.54L881.01 1015.97L852.58 1015.97z" stroke="#e73635"></path><path d="M1387.85 72.06a52.42 52.42 0 1 0 14.01 103.9z" fill="#e73635"></path><path d="M832.08 858.15a52.85 52.85 0 1 0 94.33 47.7z" stroke="#d3b714"></path><path d="M235.21 732.86a99.19 99.19 0 1 0-197.73-16.07z" fill="#037b0b"></path><path d="M548.16 1016.32L637.89 1016.32L637.89 1019.12L548.16 1019.12z" fill="#d3b714"></path><path d="M1277.8 209.15a68.88 68.88 0 1 0-38.53 132.26z" stroke="#037b0b"></path></g><defs><mask id="SvgjsMask1024"><rect width="1920" height="1080" fill="#ffffff"></rect></mask></defs></svg>