<svg xmlns="http://www.w3.org/2000/svg" viewBox="0 0 225.29 175.46"><defs><style>.cls-1{fill-rule:evenodd;}</style></defs><g id="Layer_2" data-name="Layer 2"><g id="svg"><g id="svgg"><path id="path4" class="cls-1" d="M73.44.29A16,16,0,0,0,72,4c-1.34,4.1-1.26,4.09-4,.56C66.21,2.2,65.66,1.7,64.92,1.7c-1.49,0-1.33.35,1.89,4.09L69.9,9.38,70.31,12c.41,2.62.42,2.65,1.29,2.44,1.21-.29,1.17-.14.73-3l-.4-2.59L73.15,5.7C75.46-.28,75.38,0,74.54,0a2.35,2.35,0,0,0-1.1.25m8.9,6C80.82,9.71,79.49,12.72,79.4,13c-.61,1.53,1.93.32,2.6-1.25L82.72,10l3,.21c3.46.23,3.3.14,3.84,2C90,13.62,91,14.36,91.9,14A45.33,45.33,0,0,0,89.81,7L87.44.2,86.28.1,85.12,0,82.34,6.27M99,8c-2.12,7.22-2,6.76-1.1,7.11.78.29.89,0,2.93-7.11.76-2.65.78-2.62,3.36,3.8,3.22,8,3.14,8,5.59-.29,1-3.58,1.87-6.54,1.82-6.59C110.52,4,110,4.4,109.3,6.76c-1.72,5.88-2.07,6.94-2.28,6.94a47,47,0,0,1-2.36-5.54C101.42-.21,101.37-.22,99,8M87.43,5.41c.48,1.59.88,3,.88,3.09a8.06,8.06,0,0,1-2.5.2,15.07,15.07,0,0,1-2.5-.1s.5-1.28,1.11-2.75,1.21-2.94,1.34-3.29c.35-.94.68-.37,1.67,2.85m-33-.7A1.16,1.16,0,0,0,53.64,6c0,1.54-.68,9.52-.82,9.66s-3.39-2.33-8.09-6c-.53-.41-2.52.35-2.31.89,1.57,3.82,5.42,11.86,5.69,11.86,1.4,0,.51-3.22-2.52-9.08-.62-1.19.6-.53,4.17,2.26,2,1.55,3.67,2.83,3.73,2.83.78,0,1.11-1.39,1.33-5.66A22.14,22.14,0,0,1,55.31,8a31.81,31.81,0,0,1,2.32,4.65c2,4.48,2.11,4.63,2.86,4.28l.77-.35-.83-1.87c-.46-1-1.67-3.79-2.71-6.12s-2-4.25-2.22-4.23a4.55,4.55,0,0,0-1.11.32m62.82,9.9c-2.59,4.11-3.42,5.69-3.17,6,.73.88,1.31.3,3.81-3.74,2.72-4.4,3.3-5,3-2.92-.1.69-.28,2.92-.4,5-.28,4.9-.25,4.91,5.19,1.79a29,29,0,0,1,4.24-2.21,34,34,0,0,1-2.55,4.43c-2.47,3.9-2.65,4.31-2.13,4.7.86.63.82.68,4.58-5.33l3.49-5.58-.9-.63-.89-.64-4.62,2.66a39.65,39.65,0,0,1-4.75,2.51,48.85,48.85,0,0,1,.23-5.26c.37-5.1.37-5.12-.36-5.72-1.1-.89-1-1-4.77,5M25.87,22.3c-.51.56-.33.79,3,3.9C30.81,28,32.23,29.56,32,29.63s-3-.12-6.25-.43c-8.74-.85-8.73-.92-.69,6.57,3.55,3.31,3.6,3.34,4.27,2.73l.69-.62-.78-.62a65.31,65.31,0,0,1-6.16-6.12c.08-.08,2.86.12,6.19.43,8.72.83,8.7.86,2.36-5.21-5.34-5.12-5-4.89-5.77-4.06m110.36,6.33-6.58,2.56.8.8c.79.79.83.79,2.17.25,2-.78,2-.76,4.12,1.61L138.66,36l-.82,1.63L137,39.28l.74.7.75.7,3.12-6.5,3.13-6.5-.78-.82c-.95-1,0-1.24-7.74,1.77m4.89,2.74a16.9,16.9,0,0,1-1.77,3c-.34,0-3.53-3.3-3.35-3.46a53.93,53.93,0,0,1,6.24-2.53c.27,0-.16,1.13-1.12,3M13,38.19c-.55,1-1.2.45,5.32,4.63l5.48,3.51.58-.88a3.49,3.49,0,0,0,.52-1c-.28-.25-10.81-6.92-11.09-7s-.56.24-.81.71M149,40.1c-8.85,5.11-8,4.52-7.61,5.44s.59,1.05,3.15-.38c2.07-1.16,2.18-1.18,2.63-.58.69.9.63,1.16-.91,4.26-1.28,2.59-1.36,2.89-.94,3.67.66,1.25.78,1.14,2.18-2.06.71-1.61,1.32-3,1.37-3a4.67,4.67,0,0,1,1.52.56c4.13,2,6.61-1.83,4.23-6.46-2-3.82-1.59-3.73-5.62-1.41m4.33,2c2.17,3.54-1.89,6.23-4.33,2.86-1.28-1.76-1.31-1.63.75-2.85,2.25-1.34,2.78-1.34,3.58,0M4.32,55.65c-.18.67-.84,2.94-1.46,5.05-1.2,4-1.21,4.33-.22,4.33.47,0,.75-.45,1.15-1.83C4.44,61,4,61,10.46,62.9c5.53,1.6,6,1.6,5.77,0-.08-.61-2.72-1.55-10-3.53L5,59l.48-1.58c.64-2.11.61-2.63-.18-2.84-.53-.14-.72.06-1,1M112.64,63C90.45,65.31,75.38,86.23,72.3,119c-3.62,38.59,10.9,60.4,37.19,55.83,19.42-3.38,33.23-22.47,37-51.16C151.59,85,137.87,60.41,112.64,63m84.77,9c-20.18,17-23.77,20-23.74,20.26.12,1,3.66,6,4.66,6.51,2.26,1.21,2.6,1,13.82-8.64,5.65-4.85,10.38-8.82,10.5-8.82s.09.79-.08,1.77-2.51,19.69-5.21,41.58l-4.9,39.81-10.87.09-10.86.09-.54,4.08c-.3,2.24-.55,4.41-.55,4.83v.75l27.24-.09,27.24-.08.58-4.34c.31-2.38.58-4.52.59-4.75s-2.16-.41-9.81-.41c-9.74,0-9.84,0-9.84-.69,0-.38,2-17.15,4.49-37.25s5.17-42.19,6-49.06,1.56-12.84,1.63-13.25l.12-.75H207.35l-9.94,8.36M.63,73.78a5.34,5.34,0,0,0-.28,4.36c1.8,3.5,5.21,3.31,6.87-.38,1.07-2.4,1.65-3.06,2.66-3.06,2.3,0,3,1.83,1.61,4.43-.83,1.59-.85,1.74-.32,2.13,1.68,1.23,3.29-4,2-6.5-1.87-3.6-5.28-3-7.37,1.36C4.91,78,4.7,78.21,3.7,78.3c-2.05.2-2.69-1.58-1.49-4.11.5-1,.51-1.24.09-1.51-.81-.5-1-.38-1.67,1.1M118.3,74c10.72,2,15.51,12.59,15.51,34.17,0,34-9.72,53.85-27.45,56.21C90.6,166.51,83,149.83,85.65,119c2.6-30.19,15.68-48.22,32.65-45M12,87.78c0,.78.14,2.2.27,3.16l.25,1.75-1.19.19-2.24.34L8,93.38,7.76,91c-.25-2.11-.37-2.43-1-2.43S6,90.37,6.49,92.61c.18.8,0,.88-2.89,1.25l-1.54.2-.23-2.72c-.32-3.67-.46-4-1.47-3.35-.48.31.08,7.54.63,8.16a119.89,119.89,0,0,0,13.25-1.29c.1-.08-.43-4.88-.8-7.24-.29-1.93-1.47-1.8-1.44.16m-.19,13.57A3.15,3.15,0,0,0,9.88,104c-.08,1.23-.34,1.3-1.31.39-2.08-1.94-5.36.44-4.75,3.45.41,2.06,2,6.21,2.32,6.09l6.39-2.2,6-2.08-1-2.85c-1.6-4.75-3.39-6.42-5.8-5.43M14.76,104c.75.82,1.7,3.7,1.34,4-.56.51-3.85,1.42-4.11,1.13a8,8,0,0,1-1-3.65A2.24,2.24,0,0,1,14.76,104m-5.69,2.14a8.73,8.73,0,0,1,1.57,3.6,13.24,13.24,0,0,1-4,1.65c-.3,0-1.33-3-1.33-3.9,0-1.37,2.53-2.28,3.76-1.35"/></g></g></g></svg>