<?xml version="1.0" standalone="no"?>
<!DOCTYPE svg PUBLIC "-//W3C//DTD SVG 20010904//EN"
 "http://www.w3.org/TR/2001/REC-SVG-20010904/DTD/svg10.dtd">
<svg version="1.0" xmlns="http://www.w3.org/2000/svg"
 width="200.000000pt" height="149.000000pt" viewBox="0 0 200.000000 149.000000"
 preserveAspectRatio="xMidYMid meet">

<g transform="translate(0.000000,149.000000) scale(0.100000,-0.100000)"
fill="#000000" stroke="none">
<path d="M625 1385 c-66 -22 -75 -23 -167 -13 -53 6 -113 7 -135 3 -37 -7 -37
-7 50 -30 48 -12 90 -25 93 -28 3 -3 -15 -26 -41 -52 -25 -26 -57 -67 -71 -91
-97 -166 -58 -426 87 -572 123 -123 287 -158 492 -107 66 17 69 17 141 -4 158
-47 305 -35 422 35 206 121 304 408 206 606 -31 62 -94 139 -141 171 -14 9
-22 20 -17 24 4 4 46 17 94 30 l87 22 -60 0 c-33 1 -89 -4 -124 -9 -55 -9 -72
-8 -125 9 -33 11 -81 23 -106 26 -53 6 -48 4 49 -25 40 -12 70 -25 65 -29 -5
-4 -31 -16 -59 -26 -150 -55 -282 -180 -339 -321 l-22 -55 -44 88 c-71 143
-192 248 -355 308 -17 6 -13 10 25 27 25 11 61 23 80 28 28 6 30 8 10 9 -14 0
-56 -10 -95 -24z m933 -106 c57 -42 118 -136 133 -207 32 -157 -38 -346 -163
-438 -114 -84 -247 -103 -420 -60 l-106 26 -92 -26 c-121 -35 -235 -32 -323 9
-118 54 -219 184 -248 317 -16 74 -7 178 21 234 25 53 112 152 140 161 24 8
176 -68 257 -129 108 -81 193 -195 228 -304 l18 -53 17 50 c43 119 120 224
234 314 66 54 217 137 247 137 8 0 34 -14 57 -31z"/>
<path d="M679 1055 c-32 -18 -52 -63 -43 -99 15 -59 98 -86 142 -46 28 26 28
28 -3 22 -33 -6 -55 14 -55 48 0 35 22 54 56 47 25 -4 26 -4 7 14 -25 26 -72
32 -104 14z"/>
<path d="M1254 1060 c-57 -23 -71 -100 -28 -144 34 -34 83 -35 120 -2 l28 23
-31 -4 c-53 -8 -83 46 -46 82 9 10 26 15 40 12 32 -6 29 9 -7 28 -32 17 -45
18 -76 5z"/>
<path d="M82 358 c3 -9 36 -15 97 -18 l93 -5 -96 -118 c-53 -65 -96 -125 -96
-133 0 -12 20 -14 117 -12 80 2 118 7 120 15 3 9 -23 13 -96 15 l-101 3 100
125 c55 69 100 128 100 133 0 4 -54 7 -121 7 -92 0 -120 -3 -117 -12z"/>
<path d="M1234 360 c-32 -13 -72 -67 -80 -105 -18 -97 48 -185 138 -185 62 0
138 83 138 149 -1 44 -37 109 -72 131 -34 21 -87 25 -124 10z m127 -46 c26
-23 42 -79 35 -119 -21 -111 -163 -128 -206 -25 -27 65 15 163 74 172 29 5 75
-8 97 -28z"/>
<path d="M387 279 c-25 -15 -47 -63 -47 -105 0 -28 8 -44 35 -71 33 -33 39
-35 81 -30 50 5 91 34 74 51 -8 8 -13 8 -18 0 -10 -16 -48 -34 -72 -34 -24 0
-70 42 -70 65 0 12 15 15 89 15 50 0 92 4 96 10 9 15 -21 76 -46 94 -26 18
-94 21 -122 5z m98 -15 c18 -7 47 -58 38 -68 -4 -3 -39 -6 -80 -6 -81 0 -88 8
-52 54 20 26 57 34 94 20z"/>
<path d="M600 180 c0 -91 3 -110 15 -110 12 0 15 15 15 71 0 82 9 103 50 117
16 6 30 16 30 21 0 18 -35 12 -58 -9 l-22 -21 0 21 c0 11 -7 20 -15 20 -12 0
-15 -19 -15 -110z"/>
<path d="M754 259 c-24 -25 -29 -39 -29 -80 0 -45 4 -54 34 -81 30 -26 39 -30
78 -25 51 5 78 26 93 73 25 75 -25 144 -104 144 -34 0 -48 -6 -72 -31z m131
-21 c22 -26 26 -39 21 -67 -12 -74 -87 -100 -133 -47 -25 30 -29 65 -11 99 30
56 83 63 123 15z"/>
<path d="M1480 180 c0 -91 3 -110 15 -110 12 0 15 15 15 79 0 74 2 81 26 100
32 25 57 27 78 5 12 -12 16 -36 16 -100 0 -68 3 -84 15 -84 22 0 22 166 -1
198 -19 27 -73 30 -109 6 -23 -15 -25 -15 -25 0 0 9 -7 16 -15 16 -12 0 -15
-19 -15 -110z"/>
<path d="M1744 267 c-21 -18 -28 -35 -32 -75 -4 -49 -3 -53 32 -88 34 -34 40
-36 82 -31 50 5 91 34 74 51 -8 8 -13 8 -18 0 -10 -16 -48 -34 -72 -34 -24 0
-70 42 -70 65 0 12 15 15 88 15 49 0 91 3 94 6 12 11 -12 69 -37 92 -36 31
-104 30 -141 -1z m111 -3 c18 -7 47 -58 38 -68 -4 -3 -39 -6 -80 -6 -62 0 -73
3 -73 17 0 43 65 76 115 57z"/>
<path d="M983 188 c2 -9 24 -13 62 -13 38 0 60 4 63 13 3 9 -14 12 -63 12 -49
0 -66 -3 -62 -12z"/>
</g>
</svg>
